<svg xmlns="http://www.w3.org/2000/svg" version="1.1" xmlns:xlink="http://www.w3.org/1999/xlink" xmlns:svgjs="http://svgjs.dev/svgjs" width="1000" height="1000" viewBox="0 0 1000 1000"><rect width="1000" height="1000" fill="#ffffff"></rect><g transform="matrix(0.7,0,0,0.7,150.07466666666664,278.43479687859036)"><svg viewBox="0 0 375 238" data-background-color="#ffffff" preserveAspectRatio="xMidYMid meet" height="634" width="1000" xmlns="http://www.w3.org/2000/svg" xmlns:xlink="http://www.w3.org/1999/xlink"><g id="tight-bounds" transform="matrix(1,0,0,1,-0.03976036071776434,-0.17954406738283524)"><svg viewBox="0 0 375.07952880859375 238.3590850830078" height="238.3590850830078" width="375.07952880859375"><g><svg></svg></g><g><svg viewBox="0 0 375.07952880859375 238.3590850830078" height="238.3590850830078" width="375.07952880859375"><g transform="matrix(1,0,0,1,-10.220239639282227,-8.840911865234375)"><path xmlns="http://www.w3.org/2000/svg" d="M10.22 238.359v-229.518h375.08v229.518h-30.653v-2.699l27.954 0v-224.12h-369.681v224.12l34.214 0 0 2.699z" fill="#0718c4" fill-rule="nonzero" stroke="none" stroke-width="1" stroke-linecap="butt" stroke-linejoin="miter" stroke-miterlimit="10" stroke-dasharray="" stroke-dashoffset="0" font-family="none" font-weight="none" font-size="none" text-anchor="none" style="mix-blend-mode: normal" data-fill-palette-color="tertiary"></path><g><path xmlns="http://www.w3.org/2000/svg" d="M60.806 241.775v0c-1.92 0-3.328-0.489-4.225-1.468-0.899-0.978-1.349-2.27-1.349-3.875 0-1.603 0.276-3.064 0.829-4.385 0.55-1.318 1.37-2.402 2.459-3.251 1.09-0.847 2.27-1.271 3.542-1.271 1.268 0 2.265 0.306 2.991 0.918 0.723 0.614 1.085 1.438 1.085 2.471 0 1.035-0.318 1.894-0.955 2.575-0.639 0.681-1.386 1.022-2.241 1.022-0.855 0-1.517-0.19-1.988-0.569-0.471-0.377-0.706-0.779-0.706-1.208 0-0.426 0.171-0.76 0.513-1.003 0.339-0.24 0.837-0.36 1.494-0.36v0c-0.161 0.161-0.242 0.374-0.242 0.639 0 0.268 0.081 0.5 0.242 0.698 0.161 0.198 0.409 0.297 0.743 0.298 0.334 0 0.669-0.177 1.003-0.532 0.334-0.352 0.502-0.819 0.502-1.401 0-0.582-0.176-1.047-0.528-1.393-0.354-0.347-0.853-0.52-1.497-0.52v0c-0.842 0-1.606 0.341-2.293 1.022-0.689 0.681-1.213 1.548-1.572 2.601-0.359 1.053-0.539 2.161-0.538 3.325v0c0 1.003 0.217 1.889 0.65 2.657v0c0.223 0.396 0.555 0.712 0.996 0.948 0.438 0.235 0.955 0.353 1.549 0.353v0c1.016 0 1.994-0.326 2.936-0.978 0.941-0.649 1.734-1.488 2.378-2.515v0l0.631 1.133c-0.731 1.189-1.647 2.164-2.749 2.924-1.102 0.763-2.322 1.144-3.66 1.145zM70.838 232.727v0c1.14 0 2.09 0.365 2.85 1.096 0.763 0.731 1.144 1.623 1.145 2.676v0c0 1.598-0.467 2.876-1.401 3.834-0.936 0.961-2.067 1.442-3.393 1.442-1.325 0-2.374-0.378-3.147-1.133-0.775-0.756-1.163-1.691-1.163-2.806v0c0-1.561 0.477-2.799 1.431-3.716v0c0.966-0.929 2.192-1.393 3.678-1.393zM70.474 234.232c-0.587 0-1.079 0.334-1.475 1.003-0.396 0.669-0.613 1.511-0.65 2.527v0c0 0.718 0.146 1.313 0.438 1.783 0.29 0.471 0.732 0.706 1.327 0.706 0.595 0 1.094-0.328 1.497-0.984 0.401-0.656 0.602-1.406 0.602-2.248 0-0.842-0.142-1.511-0.427-2.007v0c-0.285-0.52-0.722-0.78-1.312-0.78zM80.927 239.583v0l0.446-4.143c0-0.334-0.087-0.613-0.261-0.837-0.173-0.223-0.461-0.334-0.862-0.334-0.404 0-0.744 0.176-1.021 0.528-0.28 0.354-0.457 0.798-0.532 1.33v0c-0.446 3.394-0.681 5.239-0.706 5.536v0h-2.508l1.022-8.75c0.52-0.136 0.917-0.204 1.189-0.205v0c0.83 0 1.263 0.303 1.3 0.911v0c0.607-0.595 1.335-0.892 2.185-0.892 0.847 0 1.512 0.211 1.996 0.632 0.483 0.421 0.725 0.954 0.724 1.597v0c0 0.173-0.037 0.502-0.111 0.985v0c-0.285 1.883-0.427 2.979-0.428 3.289v0c0 0.57 0.192 0.855 0.576 0.854v0c0.842 0 1.48-0.879 1.914-2.638v0c0.421 0.446 0.675 0.799 0.762 1.059v0c-0.656 2.18-1.796 3.27-3.419 3.27v0c-0.768 0-1.338-0.235-1.709-0.706-0.372-0.471-0.557-0.966-0.557-1.486zM90.569 239.583v0l0.446-4.143c0-0.334-0.087-0.613-0.26-0.837-0.173-0.223-0.461-0.334-0.862-0.334-0.404 0-0.744 0.176-1.022 0.528-0.28 0.354-0.457 0.798-0.531 1.33v0c-0.446 3.394-0.681 5.239-0.706 5.536v0h-2.509l1.022-8.75c0.52-0.136 0.917-0.204 1.189-0.205v0c0.83 0 1.263 0.303 1.301 0.911v0c0.607-0.595 1.335-0.892 2.185-0.892 0.847 0 1.512 0.211 1.995 0.632 0.483 0.421 0.725 0.954 0.725 1.597v0c0 0.173-0.037 0.502-0.112 0.985v0c-0.285 1.883-0.427 2.979-0.427 3.289v0c0 0.57 0.192 0.855 0.576 0.854v0c0.842 0 1.48-0.879 1.914-2.638v0c0.421 0.446 0.675 0.799 0.761 1.059v0c-0.656 2.18-1.796 3.27-3.418 3.27v0c-0.768 0-1.338-0.235-1.71-0.706-0.372-0.471-0.557-0.966-0.557-1.486zM98.372 237.502c0.768-0.161 1.341-0.471 1.721-0.929 0.377-0.458 0.565-0.902 0.564-1.33 0-0.426-0.114-0.717-0.341-0.874-0.23-0.154-0.482-0.23-0.755-0.23v0c-0.582 0-1.092 0.325-1.531 0.974-0.441 0.651-0.661 1.426-0.661 2.322 0 0.899 0.214 1.568 0.643 2.006 0.426 0.441 0.955 0.661 1.587 0.662v0c0.929 0 1.821-0.322 2.675-0.966 0.855-0.644 1.548-1.486 2.081-2.527v0c0.272 0.26 0.52 0.582 0.743 0.966v0c-0.409 0.929-1.133 1.839-2.174 2.731v0c-0.52 0.434-1.136 0.787-1.847 1.059-0.713 0.272-1.448 0.409-2.203 0.409v0c-1.239 0-2.217-0.378-2.936-1.133v0c-0.768-0.817-1.152-1.864-1.151-3.14 0-1.276 0.481-2.39 1.441-3.344 0.959-0.954 2.107-1.431 3.445-1.431v0c0.954 0 1.728 0.207 2.322 0.621 0.595 0.416 0.898 0.977 0.911 1.683v0c0 0.954-0.38 1.728-1.141 2.322-0.763 0.595-1.807 1.009-3.133 1.245v0zM109.39 235.365v0c0-0.805-0.359-1.208-1.078-1.207v0c-0.533 0-1.009 0.303-1.431 0.91v0c-0.446 0.656-0.669 1.424-0.668 2.304 0 0.879 0.196 1.557 0.587 2.032 0.389 0.478 0.924 0.717 1.605 0.717v0c0.817 0 1.682-0.334 2.594-1.003 0.909-0.669 1.642-1.499 2.199-2.489v0c0.248 0.186 0.489 0.526 0.725 1.021v0c-0.359 0.718-1.028 1.523-2.007 2.416v0c-0.508 0.471-1.14 0.867-1.895 1.189v0c-0.817 0.347-1.635 0.52-2.452 0.52v0c-1.102 0-2.034-0.378-2.794-1.133-0.763-0.756-1.144-1.74-1.145-2.954v0c0-1.474 0.495-2.669 1.486-3.586 0.991-0.917 2.099-1.375 3.326-1.375v0c0.954 0 1.709 0.198 2.267 0.595 0.557 0.396 0.836 0.917 0.836 1.56v0c0 0.421-0.149 0.787-0.446 1.096v0c-0.545 0.545-1.208 0.817-1.988 0.818v0c0.186-0.619 0.279-1.096 0.279-1.431zM116.487 228.733v0c0 0.074-0.167 1.406-0.502 3.994v0h2.731v1.431h-2.917l-0.055 0.464c1.449 1.214 2.174 2.539 2.173 3.976v0c0 1.127-0.287 1.938-0.862 2.434-0.577 0.495-1.268 0.743-2.073 0.743-0.805 0-1.393-0.214-1.765-0.643-0.372-0.426-0.557-0.943-0.558-1.549v0c0-0.136 0.012-0.285 0.038-0.446v0l0.576-4.942-0.075-0.037h-1.505c-0.012-0.124-0.019-0.326-0.018-0.606 0-0.277 0.056-0.552 0.167-0.825v0h1.598l0.594-5.053c0.26-0.099 0.607-0.149 1.041-0.149v0c0.941 0 1.412 0.403 1.412 1.208zM116.673 238.579v0c0-0.855-0.372-1.697-1.115-2.526v0c-0.223 1.846-0.334 2.911-0.335 3.195v0c0 0.557 0.18 0.836 0.539 0.836v0c0.26 0 0.477-0.121 0.65-0.364 0.173-0.24 0.26-0.621 0.261-1.141zM120.091 227.978c0.285-0.29 0.632-0.435 1.04-0.435 0.409 0 0.759 0.145 1.052 0.435 0.29 0.292 0.435 0.643 0.435 1.052 0 0.409-0.145 0.756-0.435 1.04-0.292 0.285-0.643 0.427-1.052 0.428-0.409 0-0.756-0.142-1.04-0.428-0.285-0.285-0.427-0.632-0.427-1.04 0-0.409 0.142-0.759 0.427-1.052zM119.329 233.433c0.124-0.223 0.359-0.394 0.706-0.513 0.347-0.116 0.691-0.175 1.033-0.174 0.339 0 0.639 0.043 0.9 0.13v0c-0.483 3.728-0.725 5.611-0.725 5.648v0c-0.062 0.248-0.093 0.455-0.093 0.62 0 0.168 0.012 0.315 0.037 0.439v0c0.05 0.322 0.276 0.483 0.68 0.483 0.401 0 0.773-0.264 1.115-0.792 0.339-0.525 0.596-1.122 0.769-1.791v0c0.087 0.05 0.223 0.198 0.409 0.446 0.186 0.248 0.297 0.434 0.334 0.557v0c-0.248 0.991-0.669 1.79-1.263 2.397v0c-0.595 0.607-1.307 0.91-2.137 0.911-0.83 0-1.445-0.204-1.846-0.614-0.404-0.409-0.606-0.935-0.606-1.579v0c0-0.136 0.006-0.279 0.018-0.427v0zM128.266 239.583v0l0.446-4.143c0-0.334-0.087-0.613-0.26-0.837-0.173-0.223-0.461-0.334-0.862-0.334-0.404 0-0.744 0.176-1.022 0.528-0.28 0.354-0.457 0.798-0.532 1.33v0c-0.446 3.394-0.681 5.239-0.706 5.536v0h-2.508l1.022-8.75c0.52-0.136 0.917-0.204 1.189-0.205v0c0.83 0 1.263 0.303 1.301 0.911v0c0.607-0.595 1.335-0.892 2.184-0.892 0.847 0 1.512 0.211 1.996 0.632 0.483 0.421 0.725 0.954 0.724 1.597v0c0 0.173-0.037 0.502-0.111 0.985v0c-0.285 1.883-0.427 2.979-0.427 3.289v0c0 0.57 0.192 0.855 0.576 0.854v0c0.842 0 1.48-0.879 1.913-2.638v0c0.421 0.446 0.675 0.799 0.762 1.059v0c-0.656 2.18-1.796 3.27-3.419 3.27v0c-0.768 0-1.338-0.235-1.709-0.706-0.372-0.471-0.557-0.966-0.557-1.486zM137.611 232.727v0c0.681 0 1.307 0.111 1.876 0.334v0c0.384-0.235 0.787-0.353 1.208-0.353 0.421 0 0.756 0.056 1.003 0.168v0l-0.668 5.239c0.917-0.706 1.61-1.35 2.08-1.932v0l0.539 1.133c-0.706 0.743-1.647 1.536-2.824 2.378v0l-0.501 3.883c-0.136 1.164-0.516 2.06-1.141 2.687-0.627 0.624-1.436 0.936-2.427 0.936v0c-0.57 0-1.127-0.186-1.672-0.557v0c-0.57-0.396-0.855-1.034-0.854-1.914v0c0-1.078 0.514-2.062 1.542-2.954v0c-0.879-0.062-1.635-0.427-2.267-1.096-0.632-0.669-0.948-1.542-0.947-2.62v0c0-1.623 0.477-2.917 1.43-3.883 0.954-0.966 2.161-1.449 3.623-1.449zM137.89 234.176v0c-0.793 0-1.421 0.3-1.884 0.899-0.466 0.602-0.742 1.497-0.829 2.687v0c-0.012 0.111-0.019 0.217-0.018 0.316v0c0 0.607 0.146 1.09 0.438 1.449 0.29 0.359 0.664 0.539 1.122 0.539v0c0.78 0 1.369-0.545 1.765-1.635v0l0.465-4.032c-0.384-0.149-0.737-0.223-1.059-0.223zM135.66 244.45v0c0 0.334 0.097 0.598 0.29 0.792 0.191 0.191 0.41 0.286 0.658 0.286v0c0.694 0 1.096-0.44 1.207-1.319v0l0.316-2.787c-1.647 0.978-2.471 1.988-2.471 3.028zM146.325 231.538v0c0-1.189 0.526-2.155 1.579-2.898 1.053-0.743 2.459-1.115 4.217-1.115v0c1.053 0 1.976 0.12 2.768 0.36 0.793 0.243 1.4 0.575 1.821 0.996v0c0.842 0.83 1.263 1.784 1.264 2.861 0 1.078-0.43 1.978-1.29 2.702-0.862 0.726-1.962 1.089-3.299 1.088v0c-0.149 0-0.372-0.012-0.669-0.037v0l0.167-1.356c1.647 0 2.471-0.774 2.471-2.322v0c0-0.718-0.303-1.325-0.91-1.821v0c-0.632-0.52-1.573-0.78-2.824-0.78v0c-1.251 0-2.242 0.322-2.973 0.966v0c-0.434 0.372-0.65 0.774-0.65 1.207v0c0 0.817 0.489 1.282 1.467 1.394v0l-0.223 1.375c-0.855-0.037-1.554-0.31-2.099-0.818-0.545-0.508-0.817-1.109-0.817-1.802zM152.864 230.182v0l-0.817 5.313c1.573 0.756 2.36 1.87 2.359 3.344v0c0 1.078-0.281 1.836-0.843 2.275-0.565 0.441-1.244 0.661-2.036 0.661-0.793 0-1.412-0.204-1.858-0.613-0.446-0.409-0.669-0.96-0.669-1.654v0c0-0.161 0.006-0.285 0.018-0.371v0l1.115-8.602c0.644-0.31 1.189-0.464 1.635-0.465 0.446 0 0.811 0.037 1.096 0.112zM152.065 240.084v0c0.297 0 0.555-0.105 0.773-0.316 0.216-0.211 0.323-0.564 0.324-1.059v0c0-0.879-0.421-1.573-1.264-2.08v0c-0.198 1.449-0.297 2.319-0.297 2.608 0 0.292 0.047 0.507 0.141 0.643 0.092 0.136 0.199 0.204 0.323 0.204zM161.541 237.502c0.768-0.161 1.341-0.471 1.72-0.929 0.377-0.458 0.565-0.902 0.565-1.33 0-0.426-0.114-0.717-0.342-0.874-0.23-0.154-0.482-0.23-0.754-0.23v0c-0.582 0-1.092 0.325-1.531 0.974-0.441 0.651-0.661 1.426-0.662 2.322 0 0.899 0.214 1.568 0.643 2.006 0.426 0.441 0.955 0.661 1.587 0.662v0c0.929 0 1.821-0.322 2.675-0.966 0.855-0.644 1.548-1.486 2.081-2.527v0c0.272 0.26 0.52 0.582 0.743 0.966v0c-0.409 0.929-1.133 1.839-2.173 2.731v0c-0.52 0.434-1.136 0.787-1.847 1.059-0.713 0.272-1.448 0.409-2.204 0.409v0c-1.239 0-2.217-0.378-2.935-1.133v0c-0.768-0.817-1.152-1.864-1.152-3.14 0-1.276 0.481-2.39 1.442-3.344 0.959-0.954 2.107-1.431 3.444-1.431v0c0.954 0 1.728 0.207 2.323 0.621 0.595 0.416 0.898 0.977 0.91 1.683v0c0 0.954-0.38 1.728-1.141 2.322-0.763 0.595-1.807 1.009-3.132 1.245v0zM171.61 232.727v0c1.14 0 2.091 0.365 2.854 1.096 0.76 0.731 1.141 1.623 1.141 2.676v0c0 1.598-0.467 2.876-1.401 3.834-0.936 0.961-2.067 1.442-3.392 1.442-1.325 0-2.374-0.378-3.148-1.133-0.775-0.756-1.163-1.691-1.163-2.806v0c0-1.561 0.477-2.799 1.431-3.716v0c0.966-0.929 2.192-1.393 3.678-1.393zM171.25 234.232c-0.59 0-1.083 0.334-1.479 1.003-0.396 0.669-0.613 1.511-0.65 2.527v0c0 0.718 0.146 1.313 0.438 1.783 0.29 0.471 0.732 0.706 1.327 0.706 0.595 0 1.094-0.328 1.497-0.984 0.401-0.656 0.602-1.406 0.602-2.248 0-0.842-0.142-1.511-0.427-2.007v0c-0.285-0.52-0.721-0.78-1.308-0.78zM178.447 232.708v0c0.805 0 1.276 0.204 1.412 0.614v0c0.582-0.409 1.319-0.613 2.211-0.614 0.892 0 1.66 0.365 2.304 1.097 0.644 0.731 0.966 1.585 0.966 2.563v0c0 0.136-0.006 0.279-0.018 0.428v0c-0.136 1.623-0.681 2.857-1.635 3.704-0.954 0.85-2.199 1.275-3.735 1.275v0c-0.347 0-0.725-0.043-1.133-0.13v0l-0.594 5.109h-2.434c0.793-6.825 1.325-11.457 1.597-13.897v0c0.26-0.099 0.613-0.149 1.059-0.149zM182.721 236.499v0c0-0.545-0.124-1.028-0.372-1.45-0.248-0.421-0.632-0.632-1.152-0.631v0c-0.706 0-1.245 0.458-1.616 1.375v0c-0.248 1.833-0.39 2.898-0.428 3.195v0c-0.012 0.372 0.105 0.65 0.353 0.836 0.248 0.186 0.551 0.279 0.911 0.279v0c0.632 0 1.152-0.285 1.56-0.855v0c0.495-0.706 0.743-1.623 0.744-2.749zM188.733 241.794c-0.763 0-1.361-0.214-1.795-0.643-0.434-0.426-0.65-1.011-0.65-1.754v0c0-0.198 0.334-3.14 1.003-8.825v0c0.173-1.462 0.638-2.384 1.393-2.768v0c0.347-0.186 0.762-0.279 1.245-0.279v0c1.635 0 2.452 0.756 2.453 2.267v0c0 0.124-0.006 0.254-0.019 0.39v0c-0.124 1.66-1.164 3.35-3.121 5.072v0c-0.062 0.607-0.13 1.195-0.205 1.765v0c-0.149 1.276-0.223 1.982-0.222 2.118v0c0 0.644 0.279 0.966 0.836 0.966v0c0.607 0 1.174-0.351 1.701-1.052 0.525-0.699 0.93-1.593 1.215-2.683v0c0.111 0.037 0.266 0.139 0.465 0.305 0.198 0.168 0.334 0.315 0.409 0.439v0c-0.198 1.028-0.644 2.013-1.338 2.954v0c-0.347 0.483-0.787 0.879-1.319 1.189v0c-0.607 0.359-1.291 0.539-2.051 0.539zM189.502 232.838l-0.056 0.558c1.14-1.251 1.709-2.372 1.709-3.363v0c0-0.595-0.223-0.892-0.668-0.892v0c-0.285 0.025-0.473 0.211-0.565 0.558-0.094 0.347-0.181 0.91-0.26 1.69-0.082 0.78-0.135 1.263-0.16 1.449zM195.373 237.502c0.768-0.161 1.341-0.471 1.72-0.929 0.377-0.458 0.565-0.902 0.565-1.33 0-0.426-0.114-0.717-0.342-0.874-0.23-0.154-0.482-0.23-0.754-0.23v0c-0.582 0-1.092 0.325-1.531 0.974-0.441 0.651-0.661 1.426-0.661 2.322 0 0.899 0.214 1.568 0.642 2.006 0.426 0.441 0.955 0.661 1.587 0.662v0c0.929 0 1.821-0.322 2.675-0.966 0.855-0.644 1.548-1.486 2.081-2.527v0c0.272 0.26 0.52 0.582 0.743 0.966v0c-0.409 0.929-1.133 1.839-2.173 2.731v0c-0.52 0.434-1.136 0.787-1.847 1.059-0.713 0.272-1.448 0.409-2.203 0.409v0c-1.239 0-2.217-0.378-2.936-1.133v0c-0.768-0.817-1.152-1.864-1.152-3.14 0-1.276 0.481-2.39 1.442-3.344 0.959-0.954 2.107-1.431 3.444-1.431v0c0.954 0 1.728 0.207 2.323 0.621 0.595 0.416 0.898 0.977 0.91 1.683v0c0 0.954-0.38 1.728-1.141 2.322-0.763 0.595-1.807 1.009-3.132 1.245v0zM202.258 239.434c0.29-0.297 0.645-0.446 1.067-0.446 0.421 0 0.78 0.149 1.077 0.446 0.297 0.297 0.446 0.656 0.446 1.078 0 0.421-0.149 0.777-0.446 1.066-0.297 0.292-0.656 0.438-1.077 0.438-0.421 0-0.777-0.146-1.067-0.438-0.292-0.29-0.438-0.645-0.438-1.066 0-0.421 0.146-0.78 0.438-1.078zM216.924 241.775v0c-1.92 0-3.328-0.489-4.224-1.468-0.899-0.978-1.349-2.27-1.349-3.875 0-1.603 0.276-3.064 0.828-4.385 0.55-1.318 1.37-2.402 2.46-3.251 1.09-0.847 2.27-1.271 3.541-1.271 1.268 0 2.265 0.306 2.992 0.918 0.723 0.614 1.085 1.438 1.085 2.471 0 1.035-0.318 1.894-0.955 2.575-0.639 0.681-1.386 1.022-2.241 1.022-0.855 0-1.517-0.19-1.988-0.569-0.471-0.377-0.706-0.779-0.706-1.208 0-0.426 0.171-0.76 0.513-1.003 0.339-0.24 0.837-0.36 1.494-0.36v0c-0.161 0.161-0.242 0.374-0.242 0.639 0 0.268 0.081 0.5 0.242 0.698 0.161 0.198 0.409 0.297 0.743 0.298 0.334 0 0.669-0.177 1.003-0.532 0.334-0.352 0.502-0.819 0.502-1.401 0-0.582-0.176-1.047-0.528-1.393-0.354-0.347-0.853-0.52-1.497-0.52v0c-0.842 0-1.606 0.341-2.293 1.022-0.689 0.681-1.213 1.548-1.572 2.601-0.359 1.053-0.539 2.161-0.539 3.325v0c0 1.003 0.217 1.889 0.651 2.657v0c0.223 0.396 0.555 0.712 0.995 0.948 0.438 0.235 0.955 0.353 1.55 0.353v0c1.016 0 1.994-0.326 2.935-0.978 0.941-0.649 1.734-1.488 2.378-2.515v0l0.632 1.133c-0.731 1.189-1.647 2.164-2.75 2.924-1.102 0.763-2.322 1.144-3.66 1.145zM226.957 232.727v0c1.14 0 2.091 0.365 2.854 1.096 0.76 0.731 1.141 1.623 1.141 2.676v0c0 1.598-0.467 2.876-1.401 3.834-0.936 0.961-2.067 1.442-3.393 1.442-1.325 0-2.374-0.378-3.147-1.133-0.775-0.756-1.163-1.691-1.163-2.806v0c0-1.561 0.477-2.799 1.43-3.716v0c0.966-0.929 2.192-1.393 3.679-1.393zM226.597 234.232c-0.59 0-1.083 0.334-1.479 1.003-0.396 0.669-0.613 1.511-0.651 2.527v0c0 0.718 0.146 1.313 0.439 1.783 0.29 0.471 0.732 0.706 1.326 0.706 0.595 0 1.094-0.328 1.498-0.984 0.401-0.656 0.602-1.406 0.602-2.248 0-0.842-0.142-1.511-0.427-2.007v0c-0.285-0.52-0.721-0.78-1.308-0.78zM237.045 239.583v0l0.446-4.143c0-0.334-0.087-0.613-0.26-0.837-0.173-0.223-0.461-0.334-0.862-0.334-0.404 0-0.744 0.176-1.022 0.528-0.28 0.354-0.457 0.798-0.531 1.33v0c-0.446 3.394-0.681 5.239-0.706 5.536v0h-2.508l1.022-8.75c0.52-0.136 0.917-0.204 1.189-0.205v0c0.83 0 1.263 0.303 1.3 0.911v0c0.607-0.595 1.335-0.892 2.185-0.892 0.847 0 1.512 0.211 1.995 0.632 0.483 0.421 0.725 0.954 0.725 1.597v0c0 0.173-0.037 0.502-0.111 0.985v0c-0.285 1.883-0.427 2.979-0.428 3.289v0c0 0.57 0.192 0.855 0.576 0.854v0c0.842 0 1.48-0.879 1.914-2.638v0c0.421 0.446 0.675 0.799 0.762 1.059v0c-0.656 2.18-1.796 3.27-3.419 3.27v0c-0.768 0-1.338-0.235-1.709-0.706-0.372-0.471-0.557-0.966-0.558-1.486zM246.688 239.583v0l0.446-4.143c0-0.334-0.087-0.613-0.26-0.837-0.173-0.223-0.461-0.334-0.862-0.334-0.404 0-0.744 0.176-1.022 0.528-0.28 0.354-0.457 0.798-0.532 1.33v0c-0.446 3.394-0.681 5.239-0.706 5.536v0h-2.508l1.022-8.75c0.52-0.136 0.917-0.204 1.189-0.205v0c0.83 0 1.263 0.303 1.301 0.911v0c0.607-0.595 1.335-0.892 2.185-0.892 0.847 0 1.512 0.211 1.995 0.632 0.483 0.421 0.725 0.954 0.725 1.597v0c0 0.173-0.037 0.502-0.112 0.985v0c-0.285 1.883-0.427 2.979-0.427 3.289v0c0 0.57 0.192 0.855 0.576 0.854v0c0.842 0 1.48-0.879 1.913-2.638v0c0.421 0.446 0.675 0.799 0.762 1.059v0c-0.656 2.18-1.796 3.27-3.418 3.27v0c-0.768 0-1.338-0.235-1.71-0.706-0.372-0.471-0.557-0.966-0.557-1.486zM254.491 237.502c0.768-0.161 1.341-0.471 1.72-0.929 0.377-0.458 0.565-0.902 0.565-1.33 0-0.426-0.114-0.717-0.342-0.874-0.23-0.154-0.482-0.23-0.754-0.23v0c-0.582 0-1.092 0.325-1.531 0.974-0.441 0.651-0.661 1.426-0.661 2.322 0 0.899 0.214 1.568 0.643 2.006 0.426 0.441 0.955 0.661 1.586 0.662v0c0.929 0 1.821-0.322 2.676-0.966 0.855-0.644 1.548-1.486 2.08-2.527v0c0.272 0.26 0.52 0.582 0.744 0.966v0c-0.409 0.929-1.133 1.839-2.174 2.731v0c-0.52 0.434-1.136 0.787-1.847 1.059-0.713 0.272-1.448 0.409-2.203 0.409v0c-1.239 0-2.217-0.378-2.936-1.133v0c-0.768-0.817-1.152-1.864-1.152-3.14 0-1.276 0.481-2.39 1.442-3.344 0.959-0.954 2.107-1.431 3.445-1.431v0c0.954 0 1.728 0.207 2.322 0.621 0.595 0.416 0.898 0.977 0.91 1.683v0c0 0.954-0.38 1.728-1.14 2.322-0.763 0.595-1.807 1.009-3.133 1.245v0zM265.508 235.365v0c0-0.805-0.359-1.208-1.077-1.207v0c-0.533 0-1.009 0.303-1.431 0.91v0c-0.446 0.656-0.669 1.424-0.669 2.304 0 0.879 0.196 1.557 0.587 2.032 0.389 0.478 0.924 0.717 1.606 0.717v0c0.817 0 1.682-0.334 2.593-1.003 0.909-0.669 1.642-1.499 2.2-2.489v0c0.248 0.186 0.489 0.526 0.725 1.021v0c-0.359 0.718-1.028 1.523-2.007 2.416v0c-0.508 0.471-1.14 0.867-1.895 1.189v0c-0.817 0.347-1.635 0.52-2.452 0.52v0c-1.102 0-2.034-0.378-2.795-1.133-0.763-0.756-1.144-1.74-1.144-2.954v0c0-1.474 0.495-2.669 1.486-3.586 0.991-0.917 2.099-1.375 3.326-1.375v0c0.954 0 1.709 0.198 2.266 0.595 0.557 0.396 0.836 0.917 0.836 1.56v0c0 0.421-0.149 0.787-0.445 1.096v0c-0.545 0.545-1.208 0.817-1.988 0.818v0c0.186-0.619 0.279-1.096 0.278-1.431zM272.605 228.733v0c0 0.074-0.167 1.406-0.501 3.994v0h2.731v1.431h-2.917l-0.056 0.464c1.449 1.214 2.174 2.539 2.174 3.976v0c0 1.127-0.287 1.938-0.862 2.434-0.577 0.495-1.268 0.743-2.073 0.743-0.805 0-1.393-0.214-1.765-0.643-0.372-0.426-0.557-0.943-0.558-1.549v0c0-0.136 0.012-0.285 0.037-0.446v0l0.576-4.942-0.074-0.037h-1.505c-0.012-0.124-0.019-0.326-0.018-0.606 0-0.277 0.056-0.552 0.167-0.825v0h1.598l0.594-5.053c0.26-0.099 0.607-0.149 1.04-0.149v0c0.941 0 1.412 0.403 1.412 1.208zM272.791 238.579v0c0-0.855-0.372-1.697-1.114-2.526v0c-0.223 1.846-0.334 2.911-0.335 3.195v0c0 0.557 0.18 0.836 0.539 0.836v0c0.26 0 0.477-0.121 0.65-0.364 0.173-0.24 0.26-0.621 0.26-1.141zM276.21 227.978c0.285-0.29 0.632-0.435 1.04-0.435 0.409 0 0.759 0.145 1.052 0.435 0.29 0.292 0.435 0.643 0.435 1.052 0 0.409-0.145 0.756-0.435 1.04-0.292 0.285-0.643 0.427-1.052 0.428-0.409 0-0.756-0.142-1.04-0.428-0.285-0.285-0.427-0.632-0.428-1.04 0-0.409 0.142-0.759 0.428-1.052zM275.448 233.433c0.124-0.223 0.359-0.394 0.706-0.513 0.347-0.116 0.691-0.175 1.033-0.174 0.339 0 0.639 0.043 0.899 0.13v0c-0.483 3.728-0.725 5.611-0.724 5.648v0c-0.062 0.248-0.093 0.455-0.093 0.62 0 0.168 0.012 0.315 0.037 0.439v0c0.05 0.322 0.276 0.483 0.68 0.483 0.401 0 0.773-0.264 1.115-0.792 0.339-0.525 0.596-1.122 0.769-1.791v0c0.087 0.05 0.223 0.198 0.409 0.446 0.186 0.248 0.297 0.434 0.334 0.557v0c-0.248 0.991-0.669 1.79-1.263 2.397v0c-0.595 0.607-1.307 0.91-2.137 0.911-0.83 0-1.445-0.204-1.847-0.614-0.404-0.409-0.606-0.935-0.605-1.579v0c0-0.136 0.006-0.279 0.018-0.427v0zM284.385 239.583v0l0.445-4.143c0-0.334-0.087-0.613-0.26-0.837-0.173-0.223-0.461-0.334-0.862-0.334-0.404 0-0.744 0.176-1.022 0.528-0.28 0.354-0.457 0.798-0.531 1.33v0c-0.446 3.394-0.681 5.239-0.706 5.536v0h-2.508l1.022-8.75c0.52-0.136 0.917-0.204 1.189-0.205v0c0.83 0 1.263 0.303 1.3 0.911v0c0.607-0.595 1.335-0.892 2.185-0.892 0.847 0 1.512 0.211 1.996 0.632 0.483 0.421 0.725 0.954 0.724 1.597v0c0 0.173-0.037 0.502-0.111 0.985v0c-0.285 1.883-0.427 2.979-0.428 3.289v0c0 0.57 0.192 0.855 0.576 0.854v0c0.842 0 1.48-0.879 1.914-2.638v0c0.421 0.446 0.675 0.799 0.762 1.059v0c-0.656 2.18-1.796 3.27-3.419 3.27v0c-0.768 0-1.338-0.235-1.709-0.706-0.372-0.471-0.557-0.966-0.557-1.486zM293.73 232.727v0c0.681 0 1.307 0.111 1.876 0.334v0c0.384-0.235 0.787-0.353 1.208-0.353 0.421 0 0.756 0.056 1.003 0.168v0l-0.669 5.239c0.917-0.706 1.61-1.35 2.081-1.932v0l0.539 1.133c-0.706 0.743-1.647 1.536-2.824 2.378v0l-0.502 3.883c-0.136 1.164-0.516 2.06-1.141 2.687-0.627 0.624-1.436 0.936-2.426 0.936v0c-0.57 0-1.127-0.186-1.672-0.557v0c-0.57-0.396-0.855-1.034-0.855-1.914v0c0-1.078 0.514-2.062 1.542-2.954v0c-0.879-0.062-1.635-0.427-2.266-1.096-0.632-0.669-0.948-1.542-0.948-2.62v0c0-1.623 0.477-2.917 1.431-3.883 0.954-0.966 2.161-1.449 3.623-1.449zM294.008 234.176v0c-0.793 0-1.421 0.3-1.883 0.899-0.466 0.602-0.742 1.497-0.829 2.687v0c-0.012 0.111-0.019 0.217-0.019 0.316v0c0 0.607 0.146 1.09 0.439 1.449 0.29 0.359 0.664 0.539 1.122 0.539v0c0.78 0 1.369-0.545 1.765-1.635v0l0.464-4.032c-0.384-0.149-0.737-0.223-1.059-0.223zM291.779 244.45v0c0 0.334 0.097 0.598 0.29 0.792 0.191 0.191 0.41 0.286 0.657 0.286v0c0.694 0 1.096-0.44 1.208-1.319v0l0.316-2.787c-1.647 0.978-2.471 1.988-2.471 3.028zM309.28 240.047v0c0.136 0.05 0.289 0.074 0.457 0.074 0.166 0 0.327-0.019 0.483-0.055 0.154-0.037 0.296-0.128 0.428-0.272 0.129-0.141 0.23-0.255 0.304-0.341 0.074-0.087 0.167-0.279 0.279-0.576v0c0.136-0.347 0.303-0.836 0.502-1.468v0c0.52 0.483 0.83 0.848 0.929 1.096v0c-0.595 2.18-1.641 3.27-3.14 3.27v0c-0.706 0-1.604-0.458-2.694-1.375v0c-0.57 0.917-1.455 1.375-2.657 1.375v0c-0.533 0-1.012-0.18-1.438-0.539-0.429-0.359-0.643-0.873-0.643-1.542 0-0.669 0.223-1.218 0.669-1.646 0.446-0.426 1.022-0.639 1.728-0.639v0c0.136 0 0.328 0.012 0.576 0.037v0l0.26-2.359c-0.545 0.173-1.387 0.396-2.527 0.668v0-1.393c0.929-0.211 1.821-0.446 2.676-0.706v0l0.371-3.028c0.26-2.068 1.313-3.103 3.159-3.103v0c0.731 0 1.317 0.201 1.757 0.602 0.438 0.404 0.658 0.971 0.658 1.702v0c0 1.759-1.133 3.177-3.4 4.254v0l-0.557 4.385-0.019 0.186c0.917 0.817 1.53 1.282 1.839 1.393zM310.023 229.977v0c0-0.52-0.217-0.78-0.65-0.78v0c-0.52 0-0.848 0.613-0.984 1.839v0l-0.186 1.468c1.214-0.718 1.821-1.561 1.82-2.527zM303.502 239.564v0c0 0.372 0.211 0.557 0.632 0.557v0c0.409 0 0.663-0.365 0.762-1.096v0c-0.235-0.099-0.455-0.149-0.658-0.148-0.206 0-0.379 0.068-0.52 0.204-0.144 0.136-0.216 0.297-0.216 0.483zM312.736 227.978c0.285-0.29 0.632-0.435 1.04-0.435 0.409 0 0.759 0.145 1.052 0.435 0.29 0.292 0.435 0.643 0.435 1.052 0 0.409-0.145 0.756-0.435 1.04-0.292 0.285-0.643 0.427-1.052 0.428-0.409 0-0.756-0.142-1.04-0.428-0.285-0.285-0.427-0.632-0.427-1.04 0-0.409 0.142-0.759 0.427-1.052zM311.974 233.433c0.124-0.223 0.359-0.394 0.706-0.513 0.347-0.116 0.691-0.175 1.033-0.174 0.339 0 0.639 0.043 0.899 0.13v0c-0.483 3.728-0.725 5.611-0.724 5.648v0c-0.062 0.248-0.093 0.455-0.093 0.62 0 0.168 0.012 0.315 0.037 0.439v0c0.05 0.322 0.276 0.483 0.68 0.483 0.401 0 0.773-0.264 1.115-0.792 0.339-0.525 0.596-1.122 0.769-1.791v0c0.087 0.05 0.223 0.198 0.409 0.446 0.186 0.248 0.297 0.434 0.334 0.557v0c-0.248 0.991-0.669 1.79-1.263 2.397v0c-0.595 0.607-1.307 0.91-2.137 0.911-0.83 0-1.445-0.204-1.846-0.614-0.404-0.409-0.606-0.935-0.606-1.579v0c0-0.136 0.006-0.279 0.018-0.427v0zM322.613 238.338c-0.391 1.003-0.949 1.823-1.673 2.46-0.726 0.639-1.553 0.959-2.482 0.958-0.929 0-1.625-0.307-2.088-0.921-0.466-0.612-0.699-1.314-0.699-2.107v0c0-0.161 0.006-0.322 0.019-0.483v0l0.632-5.295c0.396-0.149 0.817-0.223 1.263-0.223v0c0.817 0 1.226 0.303 1.226 0.91v0c0 0.025-0.102 0.851-0.304 2.479-0.206 1.63-0.308 2.575-0.309 2.835v0c0 0.706 0.341 1.059 1.022 1.059v0c0.582 0 1.071-0.328 1.468-0.985v0c0.694-1.189 1.059-2.533 1.096-4.031v0h-0.167c-0.52 0-0.917-0.118-1.189-0.353v0c-0.31-0.272-0.464-0.601-0.465-0.985 0-0.384 0.118-0.694 0.353-0.929v0c0.285-0.248 0.625-0.372 1.022-0.372v0c0.941 0 1.53 0.489 1.765 1.468v0c0.372-0.05 0.638-0.099 0.799-0.148v0 1.059l-0.687 0.111v0.316c-0.012 1.115-0.213 2.174-0.602 3.177zM321.022 233.656v0c0 0.211 0.18 0.316 0.539 0.316v0c0.037 0 0.074 0 0.111 0v0c-0.087-0.334-0.217-0.502-0.39-0.502-0.173 0-0.26 0.062-0.26 0.186zM327.506 237.502c0.768-0.161 1.341-0.471 1.721-0.929 0.377-0.458 0.565-0.902 0.564-1.33 0-0.426-0.114-0.717-0.341-0.874-0.23-0.154-0.482-0.23-0.755-0.23v0c-0.582 0-1.092 0.325-1.531 0.974-0.441 0.651-0.661 1.426-0.661 2.322 0 0.899 0.214 1.568 0.643 2.006 0.426 0.441 0.955 0.661 1.586 0.662v0c0.929 0 1.821-0.322 2.676-0.966 0.855-0.644 1.548-1.486 2.081-2.527v0c0.272 0.26 0.52 0.582 0.743 0.966v0c-0.409 0.929-1.133 1.839-2.174 2.731v0c-0.52 0.434-1.136 0.787-1.847 1.059-0.713 0.272-1.448 0.409-2.203 0.409v0c-1.239 0-2.217-0.378-2.936-1.133v0c-0.768-0.817-1.152-1.864-1.151-3.14 0-1.276 0.481-2.39 1.441-3.344 0.959-0.954 2.107-1.431 3.445-1.431v0c0.954 0 1.728 0.207 2.322 0.621 0.595 0.416 0.898 0.977 0.911 1.683v0c0 0.954-0.38 1.728-1.141 2.322-0.763 0.595-1.807 1.009-3.133 1.245v0zM340.456 235.978v0c0.978 0.718 1.468 1.567 1.467 2.546 0 0.978-0.384 1.765-1.151 2.359-0.768 0.595-1.734 0.892-2.899 0.892v0c-0.756 0-1.384-0.19-1.884-0.569-0.503-0.377-0.754-0.843-0.754-1.4 0-0.557 0.186-1.001 0.557-1.331 0.372-0.327 0.836-0.528 1.394-0.602v0c-0.26 0.372-0.39 0.727-0.39 1.067 0 0.342 0.118 0.618 0.353 0.828v0c0.235 0.211 0.533 0.316 0.891 0.316 0.359 0 0.656-0.134 0.892-0.401 0.235-0.265 0.353-0.571 0.353-0.918v0c0-0.57-0.266-1.078-0.799-1.523v0c-0.322-0.26-0.669-0.505-1.04-0.736-0.372-0.228-0.57-0.348-0.595-0.36v0c-0.05-0.037-0.099-0.068-0.148-0.093v0c-0.223 0.26-0.545 0.616-0.966 1.066-0.421 0.453-0.756 0.816-1.004 1.089v0c-0.694 0.756-1.084 1.387-1.17 1.895v0c-0.025 0.099-0.037 0.287-0.037 0.565 0 0.28 0.084 0.569 0.252 0.865 0.166 0.297 0.367 0.52 0.602 0.669 0.235 0.149 0.468 0.27 0.699 0.364 0.228 0.092 0.426 0.156 0.595 0.194 0.166 0.037 0.249 0.062 0.249 0.074v0c0 0.087-0.136 0.186-0.409 0.297v0c-0.508 0.186-1.037 0.279-1.587 0.279-0.552 0-1.089-0.198-1.609-0.595v0c-0.706-0.545-1.059-1.27-1.059-2.173v0c0-0.557 0.142-1.109 0.428-1.654v0c0.508-0.966 1.697-2.291 3.567-3.976v0c-0.458-0.458-0.687-0.948-0.688-1.468 0-0.52 0.196-0.96 0.587-1.319 0.389-0.359 0.85-0.539 1.383-0.538v0c0.483 0 0.904 0.192 1.263 0.576v0c0.235 0.26 0.353 0.588 0.353 0.984 0 0.396-0.13 0.842-0.39 1.338v0c1.325 0.595 2.223 1.059 2.694 1.393zM336.424 233.879v0c0.297-0.31 0.446-0.533 0.446-0.669v0c0-0.31-0.136-0.477-0.409-0.502v0c-0.31 0-0.464 0.173-0.464 0.521v0c0 0.211 0.142 0.427 0.427 0.65zM343.96 239.434c0.29-0.297 0.645-0.446 1.066-0.446 0.421 0 0.78 0.149 1.078 0.446 0.297 0.297 0.446 0.656 0.446 1.078 0 0.421-0.149 0.777-0.446 1.066-0.297 0.292-0.656 0.438-1.078 0.438-0.421 0-0.777-0.146-1.066-0.438-0.292-0.29-0.438-0.645-0.439-1.066 0-0.421 0.146-0.78 0.439-1.078z" fill="#77d4fc" fill-rule="nonzero" stroke="none" stroke-width="1" stroke-linecap="butt" stroke-linejoin="miter" stroke-miterlimit="10" stroke-dasharray="" stroke-dashoffset="0" font-family="none" font-weight="none" font-size="none" text-anchor="none" style="mix-blend-mode: normal" data-fill-palette-color="secondary"></path></g></g><g transform="matrix(1,0,0,1,29.331764404296877,77.81382024193798)"><svg viewBox="0 0 316.416 82.73144459913188" height="82.73144459913188" width="316.416"><g><svg viewBox="0 0 535.3658231141858 139.97897683821265" height="82.73144459913188" width="316.416"><g><rect width="4.567094279874859" height="50.89684215716486" x="202.4269846461568" y="44.541067340523895" fill="#0718c4" opacity="1" stroke-width="0" stroke="transparent" fill-opacity="1" class="rect-o-0" data-fill-palette-color="primary" rx="1%" id="o-0" data-palette-color="#0718c4"></rect></g><g transform="matrix(1,0,0,1,218.94982311418573,44.667676400616344)"><svg viewBox="0 0 316.416 50.643624036979965" height="50.643624036979965" width="316.416"><g id="textblocktransform"><svg viewBox="0 0 316.416 50.643624036979965" height="50.643624036979965" width="316.416" id="textblock"><g><svg viewBox="0 0 316.416 50.643624036979965" height="50.643624036979965" width="316.416"><g transform="matrix(1,0,0,1,0,0)"><svg width="316.416" viewBox="2.299999952316284 -34.349998474121094 259.58001708984375 41.54999923706055" height="50.643624036979965" data-palette-color="#0718c4"><g class="wordmark-text-0" data-fill-palette-color="primary" id="text-0"><path d="M33.25-17L33.25-17Q33.25-11.35 31.05-7.2 28.85-3.05 24.85-1.1L24.85-1.1 34.95 4.95 29.25 7.2 19.4 0.35Q18.85 0.4 17.8 0.4L17.8 0.4Q10.75 0.4 6.53-4.35 2.3-9.1 2.3-17L2.3-17Q2.3-24.85 6.5-29.6 10.7-34.35 17.75-34.35L17.75-34.35Q24.95-34.35 29.1-29.63 33.25-24.9 33.25-17ZM10.38-26.18Q7.7-22.8 7.7-17 7.7-11.2 10.45-7.8 13.2-4.4 17.8-4.4L17.8-4.4Q22.55-4.4 25.2-7.75 27.85-11.1 27.85-17L27.85-17Q27.85-22.85 25.18-26.2 22.5-29.55 17.75-29.55L17.75-29.55Q13.05-29.55 10.38-26.18ZM65-33.7L65-12.9Q65-6.35 61.6-2.95 58.2 0.45 52.2 0.45L52.2 0.45Q46.3 0.45 42.9-2.88 39.5-6.2 39.5-12.5L39.5-12.5 39.5-33.7 44.65-33.7 44.65-12.55Q44.65-8.25 46.72-6.28 48.8-4.3 52.2-4.3L52.2-4.3Q59.85-4.3 59.85-12.8L59.85-12.8 59.85-33.7 65-33.7ZM77.7-33.7L77.7 0 72.6 0 72.6-33.7 77.7-33.7ZM109.79-6.85L109.79-1.65Q106.69 0.4 101.19 0.4L101.19 0.4Q93.64 0.4 88.84-4.3 84.04-9 84.04-16.9L84.04-16.9Q84.04-24.55 88.87-29.35 93.69-34.15 101.09-34.15L101.09-34.15Q106.49-34.15 109.74-32.3L109.74-32.3 109.74-27.25Q107.54-28.45 105.77-28.93 103.99-29.4 101.24-29.4L101.24-29.4Q96.19-29.4 92.82-25.98 89.44-22.55 89.44-16.9L89.44-16.9Q89.44-11.15 92.79-7.75 96.14-4.35 101.64-4.35L101.64-4.35Q106.49-4.35 109.79-6.85L109.79-6.85ZM127.59-16.7L140.69 0 134.19 0 121.44-16.65 133.69-33.7 139.94-33.7 127.59-16.7ZM120.79-33.7L120.79 0 115.64 0 115.64-33.7 120.79-33.7ZM169.99-6.85L169.99-1.65Q166.89 0.4 161.39 0.4L161.39 0.4Q153.84 0.4 149.04-4.3 144.24-9 144.24-16.9L144.24-16.9Q144.24-24.55 149.06-29.35 153.89-34.15 161.29-34.15L161.29-34.15Q166.69-34.15 169.94-32.3L169.94-32.3 169.94-27.25Q167.74-28.45 165.96-28.93 164.19-29.4 161.44-29.4L161.44-29.4Q156.39-29.4 153.01-25.98 149.64-22.55 149.64-16.9L149.64-16.9Q149.64-11.15 152.99-7.75 156.34-4.35 161.84-4.35L161.84-4.35Q166.69-4.35 169.99-6.85L169.99-6.85ZM201.29-33.7L201.29 0 196.14 0 196.14-14.75 180.99-14.75 180.99 0 175.84 0 175.84-33.7 180.99-33.7 180.99-19.2 196.14-19.2 196.14-33.7 201.29-33.7ZM216.63-14.25L216.63-14.25 216.08-12.55 226.88-12.55 226.33-14.25Q224.43-20.15 223.23-24.03 222.03-27.9 221.78-28.85L221.78-28.85 221.53-29.8Q220.98-27.45 216.63-14.25ZM214.68-8.25L211.98 0 206.53 0 218.18-33.7 224.93-33.7 236.43 0 230.93 0 228.28-8.25 214.68-8.25ZM261.88-33.7L261.88-29.4 253.03-29.4 253.03 0 247.88 0 247.88-29.4 239.08-29.4 239.08-33.7 261.88-33.7Z" fill="#0718c4" data-fill-palette-color="primary"></path></g></svg></g></svg></g></svg></g></svg></g><g><svg viewBox="0 0 190.4712404580027 139.97897683821265" height="139.97897683821265" width="190.4712404580027"><g><svg xmlns="http://www.w3.org/2000/svg" xmlns:xlink="http://www.w3.org/1999/xlink" version="1.1" x="0" y="0" viewBox="7.552000045776367 18.47899627685547 87.46800231933594 64.28099822998047" enable-background="new 0 0 100 100" xml:space="preserve" height="139.97897683821265" width="190.4712404580027" class="icon-icon-0" data-fill-palette-color="accent" id="icon-0"><path d="M31.805 41.953c0-5.497 2.443-10.57 6.546-14.639-0.238-0.004-0.474-0.013-0.712-0.013-16.615 0-30.087 9.948-30.087 22.221 0 9.36 7.837 17.36 18.926 20.634l-0.585 12.604 8.693-11.016c0 0 1.642 0 3.053 0 7.925 0 15.129-2.267 20.502-5.965C43.185 63.725 31.805 53.826 31.805 41.953z" fill="#24a8df" data-fill-palette-color="accent"></path><g fill="#24a8df" data-fill-palette-color="accent"><path d="M76.966 82.062l-11.95-15.139h-2.081c-17.693 0-32.089-10.865-32.089-24.223 0-13.355 14.396-24.221 32.089-24.221 17.691 0 32.085 10.866 32.085 24.221 0 9.637-7.348 18.172-18.857 22.078L76.966 82.062zM62.935 22.48c-15.487 0-28.089 9.071-28.089 20.221 0 11.15 12.602 20.223 28.089 20.223h4.021l5.437 6.889-0.369-7.949 1.504-0.443C84.153 58.281 91.02 50.934 91.02 42.701 91.02 31.551 78.421 22.48 62.935 22.48z" fill="#24a8df" data-fill-palette-color="accent"></path></g></svg></g></svg></g></svg></g></svg></g></svg></g><defs></defs></svg><rect width="375.07952880859375" height="238.3590850830078" fill="none" stroke="none" visibility="hidden"></rect></g></svg></g></svg>